<?xml version="1.0" encoding="UTF-8"?>
<!-- Lumy · Pena honda (pena)
     tristeza · intensidad 3 · banda espejo
     "Duele fuerte. No tenés que aguantarlo solo."

     Generado por tools/lumy-exportar-svg.js desde client/src/lumy/emociones.ts.
     NO editar a mano: se regenera. Para cambiar la pose, tocá el catálogo.  -->
<svg xmlns="http://www.w3.org/2000/svg" viewBox="0 0 207 176" width="207" height="176"
     role="img" aria-label="Lumy — Pena honda">
  <title>Lumy — Pena honda</title>
  <desc>Duele fuerte. No tenés que aguantarlo solo.</desc>
  <defs>
    <radialGradient id="cuerpo" cx="33%" cy="22%" r="86%">
      <stop offset="0%" stop-color="#EDF2F7"/>
      <stop offset="26%" stop-color="#D3DFEA"/>
      <stop offset="52%" stop-color="#ABBDD1"/>
      <stop offset="76%" stop-color="#6B84A0"/>
      <stop offset="100%" stop-color="#3A5070"/>
    </radialGradient>
    <linearGradient id="rim" x1="0" y1="0.48" x2="0.18" y2="1">
      <stop offset="0%" stop-color="#24405F" stop-opacity="0"/>
      <stop offset="100%" stop-color="#24405F" stop-opacity="0.42"/>
    </linearGradient>
    <radialGradient id="core" cx="50%" cy="50%" r="50%">
      <stop offset="0%" stop-color="#FFF7ED" stop-opacity="0.62"/>
      <stop offset="100%" stop-color="#FFF7ED" stop-opacity="0"/>
    </radialGradient>
    <radialGradient id="halo" cx="50%" cy="50%" r="50%">
      <stop offset="52%" stop-color="#9DB2C8" stop-opacity="0.34"/>
      <stop offset="100%" stop-color="#9DB2C8" stop-opacity="0"/>
    </radialGradient>
    <filter id="soft" x="-60%" y="-60%" width="220%" height="220%"><feGaussianBlur stdDeviation="8"/></filter>
    <filter id="soft2" x="-60%" y="-60%" width="220%" height="220%"><feGaussianBlur stdDeviation="4"/></filter>
    <clipPath id="parpado-izq"><polygon points="-20,0 20,-8 20,18 -20,18"/></clipPath>
    <clipPath id="parpado-der"><polygon points="-20,-8 20,0 20,18 -20,18"/></clipPath>
  </defs>

  <g id="mundo" transform="translate(-17 -30)">
    <g id="fx-tras"><g id="fx-nube" opacity="0.9"><g opacity="0.75" transform="translate(-26 14) scale(0.8)">
    <path d="M96 30 a15 15 0 0 1 28-6 a13 13 0 0 1 20 10 a11 11 0 0 1-3 21 H100 a13 13 0 0 1-4-25 Z" fill="#ABBDD1"/>
    <g stroke="#7095B7" stroke-width="3.4" stroke-linecap="round">
      <path d="M108 60 l-3 9"/><path d="M124 58 l-3 11"/><path d="M140 61 l-3 8"/></g></g></g></g>

    <ellipse id="aura" cx="120" cy="118" rx="96" ry="81"
             fill="url(#halo)" opacity="0.55" transform="translate(0, 0) translate(120, 118) rotate(0) scale(1, 1) translate(-120, -118)"/>

    <g id="cuerpo" transform="translate(0, 12) translate(125, 186) rotate(0) scale(1.12, 0.84) translate(-125, -186)">
      <path id="blob" d="M204.80 116.00 C203.67 132.59 187.31 151.18 173.17 162.79 C159.04 174.41 139.14 184.45 120.00 185.70 C100.86 186.94 70.74 181.88 58.34 170.26 C45.94 158.64 44.37 133.01 45.60 116.00 C46.83 98.99 53.29 80.06 65.69 68.21 C78.09 56.36 100.96 45.73 120.00 44.90 C139.04 44.07 165.83 51.38 179.96 63.23 C194.10 75.08 205.93 99.41 204.80 116.00 Z" fill="url(#cuerpo)"/>
      <path id="rim" d="M204.80 116.00 C203.67 132.59 187.31 151.18 173.17 162.79 C159.04 174.41 139.14 184.45 120.00 185.70 C100.86 186.94 70.74 181.88 58.34 170.26 C45.94 158.64 44.37 133.01 45.60 116.00 C46.83 98.99 53.29 80.06 65.69 68.21 C78.09 56.36 100.96 45.73 120.00 44.90 C139.04 44.07 165.83 51.38 179.96 63.23 C194.10 75.08 205.93 99.41 204.80 116.00 Z" fill="url(#rim)"/>
      <ellipse id="core" cx="112" cy="128" rx="58" ry="46" fill="url(#core)"/>
      <g id="brillos" opacity="0.7">
        <g filter="url(#soft)" opacity="0.7">
          <ellipse cx="88" cy="70" rx="30" ry="18"
                   transform="rotate(-24 88 70)" fill="#FFF7ED"/>
        </g>
        <ellipse cx="99" cy="61" rx="10" ry="5.2"
                 transform="rotate(-24 99 61)" fill="#FFF7ED" opacity="0.9"/>
        <g id="motas" fill="#FFF7ED" opacity="0.65">
          <circle cx="163" cy="90" r="2.6"/><circle cx="63" cy="150" r="2.2"/><circle cx="150" cy="163" r="1.8"/>
        </g>
      </g>
    </g>

    <g id="cara" transform="translate(0, 9.5) translate(120, 124) rotate(0) scale(1.042, 0.944) translate(-120, -124)">
      <g id="rubor" filter="url(#soft2)" fill="#C2410C" opacity="0.126">
        <ellipse cx="76" cy="134" rx="13" ry="7.5" transform="translate(0, 0) translate(76, 134) rotate(0) scale(1, 1) translate(-76, -134)"/>
        <ellipse cx="164" cy="134" rx="13" ry="7.5" transform="translate(0, 0) translate(164, 134) rotate(0) scale(1, 1) translate(-164, -134)"/>
      </g>
      <g id="ojos">
      <g id="ojo-izq" transform="translate(96, 113)">
        <g id="ojo-izq-mov" transform="translate(0, 3.5) scale(1, 1)">
          <g id="ojo-izq-abierto" opacity="1" clip-path="url(#parpado-izq)">
            <ellipse id="ojo-izq-globo" rx="12" ry="14" fill="#22364F"/>
            <g id="ojo-izq-brillo" fill="#FFF7ED" opacity="1.35">
              <circle cx="-4.2" cy="-5.6" r="4.4"/><circle cx="4.4" cy="5.2" r="2.2"/>
            </g>
          </g>
          <path id="ojo-izq-arco" d="M -11 2 Q 0 -9 11 2" fill="none" stroke="#22364F"
                stroke-width="4" stroke-linecap="round" opacity="0"/>
        </g>
      </g>
      <g id="ojo-der" transform="translate(144, 113)">
        <g id="ojo-der-mov" transform="translate(0, 3.5) scale(1, 1)">
          <g id="ojo-der-abierto" opacity="1" clip-path="url(#parpado-der)">
            <ellipse id="ojo-der-globo" rx="12" ry="14" fill="#22364F"/>
            <g id="ojo-der-brillo" fill="#FFF7ED" opacity="1.35">
              <circle cx="-4.2" cy="-5.6" r="4.4"/><circle cx="4.4" cy="5.2" r="2.2"/>
            </g>
          </g>
          <path id="ojo-der-arco" d="M -11 2 Q 0 -9 11 2" fill="none" stroke="#22364F"
                stroke-width="4" stroke-linecap="round" opacity="0"/>
        </g>
      </g>
      </g>
      <path id="boca" d="M 111.75 139 Q 113.125 137.535 114.5 136.396 Q 115.875 134.724 117.25 133.378 Q 118.625 132.032 120 131.765 Q 121.375 132.032 122.75 133.378 Q 124.125 134.724 125.5 136.396 Q 126.875 137.535 128.25 139 Q 120 131.55 111.75 139 Z" fill="#22364F" stroke="#22364F"
            stroke-width="4.8"
            stroke-linecap="round" stroke-linejoin="round"/>
    </g>

    <g id="chispas" opacity="0.25">
      <path d="M0,-1 C0.14,-0.4 0.4,-0.14 1,0 C0.4,0.14 0.14,0.4 0,1 C-0.14,0.4 -0.4,0.14 -1,0 C-0.4,-0.14 -0.14,-0.4 0,-1 Z" fill="#C2410C" opacity="1" transform="translate(206 64) scale(7.875)"/>
      <path d="M0,-1 C0.14,-0.4 0.4,-0.14 1,0 C0.4,0.14 0.14,0.4 0,1 C-0.14,0.4 -0.4,0.14 -1,0 C-0.4,-0.14 -0.14,-0.4 0,-1 Z" fill="#6FCBBB" opacity="1" transform="translate(32 82) scale(4.5)"/>
      <path d="M0,-1 C0.14,-0.4 0.4,-0.14 1,0 C0.4,0.14 0.14,0.4 0,1 C-0.14,0.4 -0.4,0.14 -1,0 C-0.4,-0.14 -0.14,-0.4 0,-1 Z" fill="#C2410C" opacity="0.5" transform="translate(196 172) scale(3.75)"/>
    </g>

    <g id="fx-frente"><g id="fx-lagrima" opacity="1"><g fill="#7FC6E8" opacity="0.9">
    <path d="M96 128 c0 0 5.5 8.4 5.5 12.2 a5.5 5.5 0 0 1-11 0 C90.5 136.4 96 128 96 128 Z"/>
    <path d="M144 130 c0 0 4.6 7 4.6 10.2 a4.6 4.6 0 0 1-9.2 0 C139.4 137 144 130 144 130 Z"/></g></g></g>
  </g>
</svg>
